<svg xmlns="http://www.w3.org/2000/svg" width="32" height="32"><path d="m25.574 31.36-19.008-.094c-.863 0-1.562-.7-1.562-1.563l3.05-23.031 17.548-5.547c1.535-.082 1.62.633 1.62 1.496l-.093 27.172a1.554 1.554 0 0 1-1.555 1.566m0 0" style="stroke:none;fill-rule:nonzero;fill:#d9cdc9;fill-opacity:1"/><path d="M25.457 30.516s-14.441.246-19.117-.02c-.895-.05-1.332-.406-1.336-.793L4.96 2.582c0-.863.703-1.562 1.562-1.562l18.91.082c.864 0 1.192.714 1.192 1.574l-.14 26.351c-.008.864-.165 1.489-1.028 1.489m0 0" style="stroke:none;fill-rule:nonzero;fill:#f1edec;fill-opacity:1"/><path d="M7.453 3.14s.383-.878.559-.89c.16-.012.574.906.574.906s.86.016.934.133c.074.121-.618.938-.618.938s.29.992.164 1.07c-.117.074-1.039-.453-1.039-.453s-.964.527-1.117.422c-.148-.102.164-1.145.164-1.145s-.64-.664-.57-.832c.062-.152.95-.148.95-.148M24.566 28.402s-.375.883-.55.895c-.157.012-.582-.902-.582-.902s-.891.003-.965-.114c-.078-.12.586-.953.586-.953s-.227-.98-.114-1.07c.153-.121 1.043.445 1.043.445s.965-.535 1.118-.43c.152.106-.16 1.149-.16 1.149s.644.656.578.824c-.063.152-.954.156-.954.156m0 0" style="stroke:none;fill-rule:nonzero;fill:#da0e21;fill-opacity:1"/><path d="M16.785 6.79c-.398-.048-1.387 1.831-1.879 3.007-.676 1.617-.648 2.351-.648 2.351l-.035 2.122 4.09-.032s.14-1.144.14-1.797c0-.652-.137-1.734-.441-2.867-.285-1.05-.828-2.738-1.227-2.785m0 0" style="stroke:none;fill-rule:nonzero;fill:#ffb803;fill-opacity:1"/><path d="M16.945 5.11c-.535-.016-1.125.19-1.23 1.054-.094.77.574 1.223 1.098 1.238.87.028 1.265-.593 1.265-1.25 0-.574-.57-1.023-1.133-1.043m0 0" style="stroke:none;fill-rule:nonzero;fill:#fd8f01;fill-opacity:1"/><path d="m18.129 14.39 1.906.81s.274-2.016 1.203-2.759c1.07-.859 1.754-.566 1.754-.566l.672-.719s-.809-1.539-2.758-1.25c-1.797.27-2.523 1.52-2.523 1.52s.05.57-.055 1.543c-.09.808-.2 1.422-.2 1.422m0 0" style="stroke:none;fill-rule:nonzero;fill:#00c1ec;fill-opacity:1"/><path d="M22.93 11.266c-.489.46-.47 1.37.136 1.812.567.41 1.418.399 1.813-.262.367-.605.219-1.41-.29-1.691-.605-.332-1.124-.363-1.66.14m0 0" style="stroke:none;fill-rule:nonzero;fill:#016aa9;fill-opacity:1"/><path d="m8.938 11.418.671.61s1.125-.657 1.98.35c.872 1.02 1.083 2.59 1.083 2.59l1.992-.988s-.043-1.976-.258-2.585c-.152-.446-.832-1.606-2.894-1.594-1.735.015-2.575 1.617-2.575 1.617m0 0" style="stroke:none;fill-rule:nonzero;fill:#ff605e;fill-opacity:1"/><path d="M8.172 13.004c.45.508 1.324.46 1.68-.047.332-.473.273-1.121-.13-1.488-.402-.367-1.019-.485-1.538.02-.465.46-.278 1.214-.012 1.515m0 0" style="stroke:none;fill-rule:nonzero;fill:#da0e21;fill-opacity:1"/><path d="M12.613 14.852s1.047-1.153 3.75-1.098c2.778.055 3.73 1.117 3.73 1.117s.462 1.598 0 3.09c-.464 1.492-.777 1.582-.738 1.973.036.39.348.98 1.149 1.492.797.515 1.527.5 1.562.73s-.41.621-1.457.532c-1.047-.09-1.757-.497-1.812-.407s.16.867.64 1.453c.481.586 1.137.942 1.047 1.157-.09.214-1.738.3-2.77-.657-1.03-.96-1.25-1.687-1.444-1.668-.196.016-.598.856-1.61 1.633-1.156.887-2.168 1.047-2.363.707-.23-.394.726-.781 1.082-1.613.355-.836.516-1.367.445-1.438-.07-.07-.355.641-1.367.817-1.012.18-1.723 0-1.738-.266-.02-.27.656-.304 1.472-1.082.801-.765 1.063-1.152 1.051-1.535-.015-.469-.531-.672-.777-2.3-.195-1.282.148-2.637.148-2.637m0 0" style="stroke:none;fill-rule:nonzero;fill:#7958c2;fill-opacity:1"/><path d="M13.27 15.316s.539-.957 2.96-.937c2.532.016 3.305 1.035 3.305 1.035s.496 4.945-3.156 4.867c-3.871-.082-3.11-4.965-3.11-4.965m0 0" style="stroke:none;fill-rule:nonzero;fill:#f1edec;fill-opacity:1"/><path d="M17.902 15.172c-.203 0-.293.34-.324 1.015-.031.657.074 1.06.3 1.06.231 0 .349-.36.364-.934.028-.766-.105-1.141-.34-1.141m0 0" style="stroke:none;fill-rule:nonzero;fill:#4f322c;fill-opacity:1"/><path d="M17.047 16.191c0 .157.316.332.879.34.562.012.828-.09.851-.289.02-.156-.21-.297-.879-.316-.664-.016-.851.078-.851.265M14.695 15.2c.203 0 .293.34.325 1.019.03.656-.075 1.054-.301 1.054-.23 0-.348-.355-.364-.93-.027-.765.106-1.144.34-1.144m0 0" style="stroke:none;fill-rule:nonzero;fill:#4f322c;fill-opacity:1"/><path d="M15.55 16.223c0 .156-.316.332-.878.343-.563.008-.828-.09-.852-.293-.02-.156.211-.296.88-.312.667-.02.85.078.85.262M15.09 18.031c-.102.2.148.969 1.265.985 1.114.015 1.372-.727 1.301-.934-.082-.242-.55-.105-1.316-.117-.735-.008-1.149-.133-1.25.066m0 0" style="stroke:none;fill-rule:nonzero;fill:#4f322c;fill-opacity:1"/></svg>